<?xml version="1.0" encoding="UTF-8"?><svg id="Layer_2" xmlns="http://www.w3.org/2000/svg" viewBox="0 0 1086.54 154.39"><defs><style>.cls-1{fill:#231f20;stroke:#231f20;stroke-miterlimit:10;stroke-width:3.28px;}</style></defs><g id="Layer_1-2"><path class="cls-1" d="M78.46,140.52L145.64,4.2h9.26v145.77h-5.91V10.11h-.2.2-.39l-68.55,139.86h-3.35L7.95,10.11h-.39v139.86H1.64V4.2h9.46l67.37,136.32Z"/><path class="cls-1" d="M168.1,149.97h-6.3L224.24,4.2h7.68l62.44,145.77h-6.3l-21.86-50.82h-76.23l-21.87,50.82ZM192.52,93.83h71.11L227.98,9.71l-35.46,84.11Z"/><path class="cls-1" d="M409.8,142.09h.39V4.2h5.91v145.77h-7.48L307.37,10.11h-.39v139.86h-5.91V4.2h8.86l99.87,137.89Z"/><path class="cls-1" d="M545.33,142.09h.39V4.2h5.91v145.77h-7.48L442.9,10.11h-.39v139.86h-5.91V4.2h8.86l99.87,137.89Z"/><path class="cls-1" d="M652.1,4.2v5.32h-74.06v64.41h74.06v5.32h-74.06v65.4h74.06v5.32h-79.97V4.2h79.97Z"/><path class="cls-1" d="M829.19,152.53c-23.05-2.95-30.14-7.48-42.15-14.58-7.09,5.12-23.05,14.58-44.91,14.58-46.48,0-76.24-35.45-76.24-75.44,0-43.73,33.88-75.44,75.64-75.44s75.64,31.71,75.64,75.44c0,31.91-17.13,49.25-25.21,57.12,11.04,6.5,19.9,9.85,37.23,12.22v6.1ZM709.82,95.6c15.96,0,30.93,3.94,43.34,10.63,6.3,3.35,9.06,5.32,34.08,24.43,15.95-13.79,24.03-32.9,24.03-53.58,0-40.38-31.12-70.13-69.74-70.13s-69.73,29.75-69.73,70.13c0,12.22,2.37,19.7,4.14,24.43,7.87-2.56,18.31-5.91,33.88-5.91ZM742.33,147.21c17.92,0,32.7-7.29,40.18-13-3.74-2.56-23.83-17.92-24.03-18.12-15.56-10.24-31.32-15.17-49.44-15.17-14.18,0-22.85,3.35-30.73,6.3,17.34,35.85,49.84,39.99,64.02,39.99Z"/><path class="cls-1" d="M833.73,4.2h5.91v94.55c0,14.18,0,23.25,9.05,35.06,6.31,8.27,18.33,13.4,29.95,13.4s23.05-5.12,29.35-13.4c9.06-11.82,9.06-20.88,9.06-35.06V4.2h5.91v94.55c.19,13.2-.4,32.9-17.53,44.91-7.49,5.51-17.14,8.86-27.19,8.86s-19.49-3.35-26.98-8.86c-17.13-12.02-17.72-31.72-17.53-44.91V4.2Z"/><path class="cls-1" d="M949.17,149.97h-5.91V4.2h5.91v145.77Z"/><path class="cls-1" d="M1078.58,142.09h.4V4.2h5.91v145.77h-7.49L976.15,10.11h-.39v139.86h-5.91V4.2h8.86l99.87,137.89Z"/></g></svg>